<svg xmlns="http://www.w3.org/2000/svg" viewBox="0 0 60 60"><link xmlns="" type="text/css" id="dark-mode" rel="stylesheet" href=""/><style xmlns="" type="text/css" id="dark-mode-custom-style"/><path d="M36.754 29.166c-.237.073-1.579.482-1.925.586 0 0 .499-.084.53.306.111 1.406.22 2.813.326 4.219.002.027-.043.058-.119.156-1.715-.933-3.363-1.986-5.061-3.197.15-.075.251-.131.333-.173-.77.267-1.596.56-2.472.877l-.002.001c.271-.069.306.047.319.482.006.232.001.465.001.698-.043 1.716-.384 3.379-.905 5.008-.128.399-.215.432-.503.173-1.297-1.164-2.39-2.485-3.064-4.113-.14-.338-.181-.47-.048-.579l-.985.404c.094.107.226.199.275.324a10.477 10.477 0 0 0 1.949 3.15c.401.447.835.865 1.269 1.28.136.13.324.206.447.386-2.625 1.175-5.251 2.047-8.027 2.908.115-.242.153-.346.21-.439 1.381-2.255 2.52-4.628 3.471-7.094.028-.072.13-.271.178-.325.096-.11.118-.091.227-.189-.549.223-1.059.463-1.616.697l.027-.008c-.065.844-3.23 6.553-4.071 7.346-.435-.594-.616-1.279-.771-1.967-.198-.879-.173-1.764-.006-2.649.068-.364.282-.602.382-.672-.605.282-.972.465-1.557.773.017-.078-.119.926-.15 1.288-.108 1.275.206 2.457.802 3.576.257.483.255.5-.286.659-2.432.714-4.866 1.42-7.301 2.123-.142.041-.295.04-.56.073.095-.381.141-.699.253-.992.804-2.106 2.252-3.694 4.096-4.923a22.39 22.39 0 0 1 1.804-1.091c-.855.417-1.7.871-2.512 1.31-.393.328-.79.654-1.188.977-1.28 1.036-2.364 2.238-3.166 3.683-.39.703-.657 1.448-.675 2.261-.031 1.384.583 2.506 1.472 3.503.952 1.068 2.096 1.899 3.321 2.622 2.193 1.295 4.586 2.096 7.041 2.668 2.108.491 4.252.85 6.397 1.154 1.762.25 3.548.322 5.321.494.536.052.858-.125 1.086-.626.729-1.605 1.538-3.175 2.236-4.793 1.13-2.619 2.068-5.307 2.563-8.128.351-2.005.562-4.025.687-6.058a34.56 34.56 0 0 0-.354-7.358c-.084-.568-.105-.66.301-.791zm-7.924 8.288c.426-1.812.726-3.639.714-5.509-.003-.505.099-.554.534-.31 1.787 1.005 3.575 2.008 5.362 3.014.048.027.087.072.218.184-2.173 1.586-4.53 2.736-6.952 3.768l-.135-.098c.087-.349.177-.698.259-1.049zm-.875 2.939c.172-.502.188-.507.639-.252a23.284 23.284 0 0 0 5.979 2.361c.145.035.282.106.434.165-.558.616-8.71 4.002-9.871 4.094.078-.177.134-.332.211-.476 1.018-1.899 1.909-3.853 2.608-5.892zm-1.144-.044l.11.102c-.05.158-.088.321-.152.473-.897 2.145-1.974 4.2-3.134 6.213-.15.26-.274.437-.625.228-1.66-.99-3.151-2.178-4.411-3.647-.086-.1-.147-.22-.285-.431 2.93-.807 5.773-1.703 8.497-2.938zM11.212 50.746c-1.259-1.09-2.37-2.29-2.933-3.901-.076-.217-.113-.449-.159-.677-.064-.319.042-.484.39-.564 2.545-.581 5.084-1.185 7.626-1.779.051-.012.108.003.264.011-.098.186-.147.309-.221.415-1.487 2.128-2.978 4.252-4.463 6.382-.144.21-.273.314-.504.113zm.73.531c.045-.169.045-.373.143-.502a243.85 243.85 0 0 1 3.073-3.947c.7-.877 1.438-1.723 2.238-2.678 1.32 1.571 2.833 2.784 4.681 3.798-.332.147-.498.234-.673.296-2.904 1.025-5.809 2.046-8.713 3.069-.055.019-.111.067-.161.061-.198-.024-.393-.064-.588-.097zm6.769 3.231c-2.023-.673-4.041-1.358-5.831-2.56-.079-.053-.163-.101-.245-.151l.054-.177 9.871-2.75c-.163.296-.245.464-.344.622-.995 1.594-1.996 3.184-2.987 4.781-.13.207-.266.319-.518.235zm.941.242l-.049-.135.302-.408c1.214-1.633 2.433-3.261 3.637-4.901.358-.488.338-.504.873-.299a29.496 29.496 0 0 0 7.259 1.76c.25.028.497.076.745.12.033.006.06.043.089.065-.411.388-8.933 3.047-12.193 3.793-.211.047-.442.005-.663.005zm12.927-3.066c-.51 1.421-1.015 2.844-1.546 4.257-.267.713-.291.718-1.046.598-2.694-.426-5.387-.86-8.079-1.296-.297-.048-.588-.129-.882-.195l-.021-.143c.22-.067.437-.148.661-.199 2.567-.581 5.147-1.118 7.608-2.081.919-.36 1.822-.761 2.733-1.143l.649-.27c-.035.222-.034.355-.077.472zm2.117-6.99a483.751 483.751 0 0 1-1.592 5.4c-.196.654-.21.643-.889.519a30.922 30.922 0 0 1-6.982-2.122c-.206-.091-.407-.197-.692-.335l10.48-4.947c-.111.515-.188 1.008-.325 1.485zm1.036-7.852a190.496 190.496 0 0 1-.296 3.698c-.037.423-.09.846-.163 1.264-.117.676-.127.675-.769.471a21.483 21.483 0 0 1-4.576-2.1c-.343-.207-.678-.428-1.055-.667l6.864-4.142c.001.495.028.988-.005 1.476zm-12.43-25.981a.772.772 0 0 1-.388-.209c-1.061-1.007-2.112-2.024-3.165-3.04-.04-.039-.058-.1-.135-.239 2.563.733 5.093 1.176 7.657 1.441l.012.131c-.12.069-.24.139-.361.206-.955.53-1.912 1.056-2.863 1.593a1.077 1.077 0 0 1-.757.117zm1.716.657s.253-.241.326-.293c.868-.609 1.739-1.214 2.606-1.825.179-.126.33-.303.494.02.446.877.904 1.749 1.351 2.625.02.039-.006.104-.021.228l1.565.241a.742.742 0 0 1-.511-.385c-1.447-2.593-2.82-5.219-3.72-8.063-.115-.363-.166-.747-.247-1.121h-.116c-.144.083-.28.188-.433.246-1.934.743-3.884 1.446-5.802 2.229-1.598.652-3.162 1.392-4.541 2.454-.492.379-.766.665-.833.954.253.705 1.735 1.037 1.735 1.037l.022.005c-.501-.143-.553-.31-.321-.776.383-.771 1.05-1.274 1.738-1.744.072-.049.286-.016.341.053.882 1.096 1.748 2.205 2.617 3.312.007.009-.009.036-.036.131-.163-.027-.33-.05-.497-.075h.002c.487.092 1.974.383 2.607.499l1.674.248zm-4.476-4.943c1.67-.934 3.429-1.672 5.214-2.353.35-.134.364-.127.415.231.162 1.142.406 2.264.82 3.344.026.068.018.149.029.249l-6.824-1.14-.028-.093c.125-.079.245-.166.374-.238z" fill="#5fc2ff"/><path d="M29.775 12.271l-.002.014-4.755-.767-1.643-.257h-.003l-.008-.001-2.155-.416c-.351-.057-.716-.097-1.071-.18-.994-.231-1.988-.462-2.975-.722l-.033-.007s-1.852-.433-1.988-1.136c-.101.359.12.716.653 1.254 1.161 1.171 2.379 2.285 3.531 3.464 3.74 3.83 4.573 8.301 2.821 13.292-.767 2.184-2.05 4.082-3.496 5.871-2.068 2.559-4.451 4.793-6.96 6.895.603-.287 2.654-1.393 5.475-2.804.717-.359 1.455-.673 2.179-1.016a71.556 71.556 0 0 1 1.653-.781c.984-.449 2.149-.885 3.178-1.33.037-.017.079-.035.126-.054l.001-.001c.62-.271 1.312-.533 1.997-.789.551-.216 1.102-.431 1.655-.643l.086-.032h.001c.852-.356 1.823-.658 2.642-.931.055-.028.103-.05.153-.066.431-.14.862-.279 1.294-.417.908-.303 1.604-.533 2.297-.748l.217-.071c.053-.018.101-.03.147-.04.541-.165 1.089-.328 1.64-.491.087-.042.21-.079.384-.129 2.068-.585 4.131-1.191 6.209-1.736 3.915-1.026 7.847-1.977 11.85-2.607.332-.052.66-.125 1.036-.197-.107-.192-.166-.312-.238-.424a19.413 19.413 0 0 0-6.565-6.396c-2.687-1.599-5.592-2.655-8.59-3.488-2.971-.826-6-1.371-9.043-1.84a1.457 1.457 0 0 1-.163-.035 23.796 23.796 0 0 0-1.537-.238zM24.3 19.01c-.044-.233.042-.356.287-.304 1.385.289 2.731.698 4.119 1.268l-4.171 3.786c-.029-.12-.059-.182-.057-.244.053-1.506.103-3.012-.178-4.506zm4.826 1.846c-.366 1.979-1.156 3.762-2.216 5.426l-2.269-1.696c1.396-1.349 2.871-2.605 4.485-3.73zm-.568 4.015c.645-1.249 1.15-2.551 1.435-3.93.052-.252.125-.428.418-.282 1.059.53 2.116 1.064 3.171 1.6.043.022.068.076.134.154l-5.348 2.933c.091-.229.13-.357.19-.475zm.979-6.311c.001.22-.079.334-.333.259-1.459-.431-2.922-.854-4.382-1.283-.047-.014-.084-.062-.194-.147 1.223-1.434 2.736-2.497 4.273-3.674.381.863.531 1.674.601 2.489.067.78.03 1.57.035 2.356zm-6.539-2.16c-1.107-1.854-2.564-3.384-4.255-4.705l.07-.099c.114.022.231.037.343.068.779.213 1.556.436 2.338.64.224.058.399.131.473.375.356 1.168.721 2.333 1.079 3.501.018.057.002.126-.048.22zm.965.541l-1.611-4.402 5.866 1.123.036.114c-1.53.893-3.037 1.818-4.291 3.165zm.126 9.049c.6.201 1.131.597 1.722 1.088l-3.496 2.658 1.774-3.746zm-4.947 7.555a389.62 389.62 0 0 1 1.965-2.295c.093-.108.19-.221.306-.301 1.213-.839 2.43-1.673 3.648-2.505.056-.038.128-.054.192-.08l.086.106a22.539 22.539 0 0 1-6.351 5.345c.051-.091.088-.192.154-.27zm8.278-2.662a79.38 79.38 0 0 0-3.054 1.209c-1.172.499-2.327 1.038-3.49 1.559-.144.064-.291.122-.436.182l-.07-.091c.089-.081.172-.171.268-.241 2.103-1.527 4.028-3.245 5.678-5.262.263-.321.319-.318.555.017.428.61.71 1.282.872 2.011.072.324-.002.495-.323.616zm.841-.314c-.044-.272-.081-.403-.083-.533a5.964 5.964 0 0 0-.661-2.637c-.101-.2-.219-.381.068-.537 1.938-1.054 3.873-2.112 5.81-3.167.026-.014.068.001.242.009-1.658 2.407-3.418 4.627-5.376 6.865zm.886-.444c.129-.145.19-.226.263-.293 2.076-1.896 3.981-3.942 5.533-6.299.132-.2.246-.332.511-.158 1.446.947 2.818 1.986 4.057 3.194.048.047.077.115.129.196l-10.493 3.36zm18.214-11.113a24.364 24.364 0 0 1 6.324 5.078c.044.05.067.118.15.271-4.205.309-8.282 1.041-12.319 2.018l-.059-.168c.244-.236.484-.475.732-.706 1.915-1.787 3.466-3.84 4.558-6.231.214-.47.233-.477.614-.262zm-.962-.224c-.083.161-.147.336-.253.48-.92 1.241-1.835 2.487-2.777 3.712-.811 1.054-1.654 2.084-2.484 3.123-.131.164-.268.321-.454.543-1.113-1.683-2.411-3.103-4.083-4.34a67.994 67.994 0 0 1 9.955-3.605l.096.087zm-7.982-3.182c2.384.622 4.716 1.399 6.973 2.392.098.043.194.095.283.153.04.026.062.08.151.2a57.489 57.489 0 0 0-9.396 2.912l-.084-.093c.062-.157.117-.316.186-.469.68-1.515 1.199-3.076 1.362-4.74.041-.412.113-.463.525-.355zm-.969.349c-.304 1.631-1.028 3.097-1.81 4.538-.517.952-.515.929-1.47.431-.812-.423-1.651-.796-2.479-1.188-.192-.091-.39-.172-.585-.258l-.03-.147a52.212 52.212 0 0 1 6.404-3.933c-.012.264-.003.414-.03.557zm-7.133 2.75c-.038-1.65-.26-3.252-.97-4.878 2.522.402 4.896.795 7.312 1.372l-6.342 3.506z" fill="#073682"/></svg>